# xmcd CD database file
#
# Track frame offsets:
#	150
#	18506
#	42108
#	56446
#	74000
#	94359
#	113016
#	131680
#	150500
#	169064
#	190311
#	217357
#	238452
#	260319
#
# Disc length: 3683 seconds
#
# Revision: 1
# Processed by: cddbd v1.5.2PL0 Copyright (c) Steve Scherf et al.
# Submitted via: CDex 1.70beta2
#
DISCID=d00e610e
DTITLE=FWG Jazzband - animi causa
DYEAR=2008
DGENRE=Jazz
TTITLE0=Original Dixieland One-Step
TTITLE1=Some of these days
TTITLE2=Limehouse Blues
TTITLE3=Sadie Green, the Vamp of New Orleans
TTITLE4=Ain't she sweet
TTITLE5=South
TTITLE6=I've found a new baby
TTITLE7=I still love you all
TTITLE8=Five foot two, eyes of blue
TTITLE9=Sweet Georgia Brown
TTITLE10=Who's sorry now
TTITLE11=Bill Bailey
TTITLE12=Bei mir bist du schön
TTITLE13=At the jazzband ball
EXTD=YEAR: 2008
EXTT0=
EXTT1=
EXTT2=
EXTT3=
EXTT4=
EXTT5=
EXTT6=
EXTT7=
EXTT8=
EXTT9=
EXTT10=
EXTT11=
EXTT12=
EXTT13=
PLAYORDER=
